<svg width="32" height="37" viewBox="0 0 32 37" fill="none" xmlns="http://www.w3.org/2000/svg">
<path d="M22.84 8.01543C22.84 3.64338 19.1966 0 14.6424 0C10.0882 0 6.44482 3.64338 6.44482 8.01543C6.44482 12.3875 10.0882 16.0309 14.6424 16.0309C19.1966 16.0309 22.84 12.3875 22.84 8.01543ZM10.0882 8.01543C10.0882 5.64723 12.0921 3.64338 14.6424 3.64338C17.1928 3.64338 19.1966 5.64723 19.1966 8.01543C19.1966 10.3836 17.1928 12.3875 14.6424 12.3875C12.0921 12.3875 10.0882 10.3836 10.0882 8.01543ZM4.8053 26.5967C5.53398 23.4998 8.08434 21.4959 10.999 21.4959H18.2858C19.7432 21.4959 21.2005 22.0424 22.4757 22.9533C23.2044 23.682 24.4795 23.4998 25.026 22.7711C25.7547 22.0424 25.5726 20.7673 24.8439 20.2207C23.0222 18.7634 20.654 17.8525 18.2858 17.8525H10.999C6.44482 17.8525 2.43711 20.9494 1.16193 25.6858L0.251082 29.147C-0.295424 30.7865 0.0689133 32.6082 1.16193 34.0656C2.25494 35.3408 3.71229 36.0694 5.53398 36.0694H18.1036C19.1966 36.0694 19.9253 35.3408 19.9253 34.2477C19.9253 33.1547 19.1966 32.4261 18.1036 32.4261H5.53398C4.8053 32.4261 4.44097 32.0617 4.2588 31.6974C3.71229 31.333 3.53012 30.6044 3.71229 30.0579L4.8053 26.5967Z" fill="white"/>
<path d="M25.5725 36.0694C26.6655 36.0694 27.3942 35.3407 27.3942 34.2477V32.426H29.2159C30.3089 32.426 31.0376 31.6974 31.0376 30.6043C31.0376 29.5113 30.3089 28.7827 29.2159 28.7827H27.3942V26.961C27.3942 25.868 26.6655 25.1393 25.5725 25.1393C24.4795 25.1393 23.7508 25.868 23.7508 26.961V28.7827H21.9291C20.8361 28.7827 20.1074 29.5113 20.1074 30.6043C20.1074 31.6974 20.8361 32.426 21.9291 32.426H23.7508V34.2477C23.7508 35.3407 24.4795 36.0694 25.5725 36.0694Z" fill="white"/>
</svg>
